<svg width="141" height="38" viewBox="0 0 141 38" fill="none" xmlns="http://www.w3.org/2000/svg">
<path d="M112.384 28.3047H114.155V32.8467H112.094V30.1641H104.954V32.8467H102.892V28.377C103.438 28.2461 103.85 27.9905 104.13 27.6123C104.409 27.2342 104.597 26.7473 104.694 26.1514C104.792 25.5561 104.84 24.8638 104.84 24.0771V21.2246H112.384V28.3047ZM47.5361 20.9561C48.4702 20.9561 49.3002 21.1703 50.0264 21.5996L50.0244 21.5986C50.7507 22.0271 51.3214 22.6029 51.7354 23.3242C52.1502 24.0455 52.3564 24.8356 52.3564 25.6943C52.3564 26.3265 52.238 26.9274 52 27.4961C51.762 28.0657 51.429 28.571 51 29.0117C50.5711 29.4533 50.0634 29.8006 49.4756 30.0537C48.8885 30.3068 48.2417 30.4336 47.5361 30.4336C46.5965 30.4336 45.7633 30.2173 45.0381 29.7852C44.3127 29.3539 43.7432 28.7781 43.332 28.0596C42.9211 27.3412 42.7149 26.5539 42.7148 25.6953C42.7148 25.0642 42.8323 24.4621 43.0674 23.8896C43.3016 23.3171 43.6356 22.811 44.0674 22.373C44.4992 21.9352 45.0097 21.59 45.5977 21.3369C46.1846 21.0839 46.8307 20.9561 47.5361 20.9561ZM67.123 20.9561C68.0571 20.9561 68.8871 21.1703 69.6133 21.5996L69.6113 21.5986C70.3376 22.0271 70.9083 22.6029 71.3223 23.3242C71.7371 24.0456 71.9434 24.8356 71.9434 25.6943C71.9433 26.3265 71.8249 26.9274 71.5869 27.4961C71.3489 28.0657 71.0159 28.571 70.5869 29.0117C70.158 29.4533 69.6504 29.8006 69.0625 30.0537C68.4755 30.3068 67.8286 30.4336 67.123 30.4336C66.1834 30.4336 65.3502 30.2173 64.625 29.7852C63.8997 29.3539 63.3301 28.7781 62.9189 28.0596C62.508 27.3412 62.3018 26.5539 62.3018 25.6953C62.3018 25.0642 62.4192 24.462 62.6543 23.8896C62.8885 23.3171 63.2225 22.811 63.6543 22.373C64.0861 21.9351 64.5966 21.59 65.1846 21.3369C65.7715 21.0839 66.4176 20.9561 67.123 20.9561ZM98.1504 20.9551C98.8905 20.9551 99.5516 21.0883 100.133 21.3535C100.714 21.6189 101.198 21.9912 101.583 22.4707L101.584 22.4697C101.969 22.9492 102.238 23.5098 102.395 24.1504C102.551 24.7912 102.57 25.4907 102.452 26.248H95.5596C95.5531 26.7189 95.6631 27.1299 95.8896 27.4814C96.1164 27.8341 96.4389 28.1096 96.8594 28.3096C97.2799 28.5095 97.7747 28.6094 98.3447 28.6094C98.8498 28.6094 99.3342 28.5335 99.7988 28.3848C100.263 28.2359 100.695 28.0156 101.095 27.7236L101.888 29.3232C101.612 29.5507 101.268 29.7472 100.856 29.9141C100.445 30.0818 100.012 30.2097 99.5566 30.2988C99.1013 30.3879 98.6648 30.4326 98.248 30.4326C97.2894 30.4326 96.4491 30.2341 95.7266 29.8379C95.0042 29.4417 94.4417 28.8885 94.0391 28.1797C93.6364 27.4706 93.4346 26.6444 93.4346 25.7021C93.4346 25.0113 93.5509 24.376 93.7832 23.7979C94.0146 23.2199 94.3435 22.7184 94.7695 22.292C95.1957 21.8664 95.6957 21.5369 96.2686 21.3047C96.8415 21.0724 97.4683 20.9551 98.1504 20.9551ZM81.6289 30.167H79.3721V23.085H76.3398V24.0781C76.3398 25.0134 76.2933 25.836 76.1992 26.5449C76.1051 27.254 75.9392 27.863 75.7012 28.3691C75.4632 28.8752 75.1311 29.2891 74.7051 29.6113C74.279 29.9326 73.7344 30.1779 73.0703 30.3447L72.3037 28.2969C72.9027 28.1414 73.3397 27.9033 73.6162 27.5811C73.8918 27.2598 74.0693 26.8157 74.1455 26.25C74.2217 25.6841 74.2598 24.9595 74.2598 24.0771V21.2266H81.6289V30.167ZM91.9805 30.167H89.7236V23.085H86.6914V24.0781C86.6914 25.0134 86.6448 25.836 86.5508 26.5449C86.4567 27.254 86.2907 27.863 86.0527 28.3691C85.8148 28.8752 85.4826 29.2891 85.0566 29.6113C84.6305 29.9327 84.0851 30.1779 83.4209 30.3447L82.6543 28.2969C83.2536 28.1414 83.6912 27.9033 83.9678 27.5811C84.2433 27.2598 84.4208 26.8157 84.4971 26.25C84.5733 25.6841 84.6113 24.9595 84.6113 24.0771V21.2266H91.9805V30.167ZM14.7568 24.5957H15.998L18.1943 21.2246H20.5918L17.8682 25.3281L20.9883 30.165H18.2998L16.0547 26.4551H14.7568V30.165H12.5V21.2246H14.7568V24.5957ZM24.1738 26.875L28.625 21.2246H30.6172V30.165H28.4492V24.4424L23.9707 30.165H22.0059V21.2246H24.1738V26.875ZM34.9414 24.5957H39.0039V21.2246H41.2617V30.165H39.0039V26.4551H34.9414V30.165H32.6846V21.2246H34.9414V24.5957ZM56.0391 24.5957H57.2803L59.4766 21.2246H61.874L59.1504 25.3281L62.2705 30.165H59.582L57.3369 26.4551H56.0391V30.165H53.7822V21.2246H56.0391V24.5957ZM117.455 21.2246L119.419 24.5957H120.469V21.2246H122.727V24.5957H123.783L125.811 21.2246H128.191L125.696 25.3281L128.5 30.165H125.829L123.819 26.4551H122.727V30.165H120.469V26.4551H119.355L117.306 30.165H114.749L117.49 25.4443L114.996 21.2246H117.455ZM47.5352 22.958C47.0357 22.958 46.5906 23.0682 46.2002 23.2891C45.8098 23.5099 45.5043 23.8259 45.2842 24.2373C45.0641 24.6487 44.9541 25.1351 44.9541 25.6953C44.9541 26.2554 45.0661 26.74 45.2891 27.1484C45.512 27.5568 45.8177 27.8721 46.2051 28.0957C46.5926 28.3194 47.0423 28.4316 47.5361 28.4316C48.03 28.4316 48.4729 28.3194 48.8633 28.0957C49.2534 27.872 49.5613 27.5568 49.7842 27.1484H49.7832C50.0061 26.74 50.1181 26.2563 50.1182 25.6953C50.1182 25.1343 50.0061 24.6486 49.7832 24.2373C49.5602 23.8259 49.2538 23.5099 48.8662 23.2891C48.4787 23.0683 48.0346 22.958 47.5352 22.958ZM67.123 22.958C66.6236 22.958 66.1784 23.0682 65.7881 23.2891C65.3977 23.5099 65.0922 23.826 64.8721 24.2373C64.652 24.6487 64.542 25.1352 64.542 25.6953C64.542 26.2554 64.654 26.74 64.877 27.1484C65.0999 27.5568 65.4056 27.8721 65.793 28.0957C66.1805 28.3194 66.6302 28.4316 67.124 28.4316C67.6179 28.4316 68.0607 28.3194 68.4512 28.0957C68.8413 27.872 69.1492 27.5568 69.3721 27.1484H69.3711C69.594 26.74 69.706 26.2563 69.7061 25.6953C69.7061 25.1343 69.594 24.6486 69.3711 24.2373C69.1481 23.8259 68.8417 23.5099 68.4541 23.2891C68.0666 23.0683 67.6225 22.958 67.123 22.958ZM106.92 24.0771C106.92 24.8401 106.868 25.5461 106.766 26.1953C106.663 26.8455 106.482 27.4236 106.224 27.9297C106.157 28.0605 106.084 28.1862 106.004 28.3057L106.003 28.3066H110.128V23.084H106.92V24.0771ZM98.0967 22.6914C97.4268 22.6914 96.8741 22.8619 96.4395 23.2051C96.0593 23.5053 95.8207 23.9042 95.7236 24.4023L95.6904 24.6221H100.265C100.247 24.0201 100.05 23.5482 99.6738 23.2051C99.2976 22.8629 98.7664 22.6914 98.0967 22.6914ZM27.3516 8.41699C28.2856 8.41699 29.1156 8.63131 29.8418 9.06055L29.8398 9.05957C30.5661 9.48803 31.1368 10.0638 31.5508 10.7852C31.9657 11.5065 32.1729 12.2965 32.1729 13.1553C32.1728 13.7874 32.0534 14.3884 31.8154 14.957C31.5774 15.5267 31.2444 16.0319 30.8154 16.4727C30.3865 16.9143 29.8789 17.2616 29.291 17.5146C28.704 17.7677 28.0571 17.8945 27.3516 17.8945C26.4119 17.8945 25.5787 17.6782 24.8535 17.2461C24.1283 16.8149 23.5586 16.2399 23.1475 15.5215C22.7364 14.803 22.5303 14.015 22.5303 13.1562C22.5303 12.5251 22.6477 11.923 22.8828 11.3506C23.117 10.7782 23.4512 10.2728 23.8828 9.83496C24.3146 9.39702 24.8251 9.05094 25.4131 8.79785C26 8.54479 26.6461 8.41703 27.3516 8.41699ZM14.7568 12.0557H18.8203V8.68457H21.0762V17.626H18.8203V13.915H14.7568V17.626H12.5V8.68457H14.7568V12.0557ZM37.9434 8.68555C38.9602 8.68557 39.7669 8.87689 40.3633 9.26172C40.9596 9.64562 41.2578 10.2235 41.2578 10.9922C41.2578 11.3741 41.1637 11.7059 40.9756 11.9893C40.7875 12.2726 40.5315 12.5046 40.209 12.6865C40.1473 12.7214 40.0821 12.7512 40.0176 12.7822C40.3869 12.9158 40.7004 13.1002 40.957 13.3379C41.4086 13.7587 41.6357 14.2963 41.6357 14.9521C41.6357 15.5067 41.4962 15.9837 41.2168 16.3828C40.9383 16.7827 40.5335 17.0895 40.0049 17.3037C39.4762 17.5188 38.8387 17.626 38.0928 17.626H33.5977V8.68555H37.9434ZM45.4824 11.4834H47.2275C48.3912 11.4834 49.3077 11.7444 49.9775 12.2656C50.6473 12.7869 50.9824 13.5511 50.9824 14.5586C50.9824 15.1965 50.8229 15.7453 50.5059 16.2041C50.1889 16.6628 49.7426 17.0152 49.167 17.2598C48.5913 17.5043 47.9156 17.6259 47.1396 17.626H43.2256V8.68555H45.4824V11.4834ZM58.8057 14.3359L63.2578 8.68457H65.249V17.626H63.082V11.9033L58.6035 17.626H56.6387V8.68457H58.8057V14.3359ZM54.5703 17.625H52.3135V8.68457H54.5703V17.625ZM35.7656 15.999H37.793C38.3159 15.999 38.7188 15.9075 39.001 15.7256H39C39.282 15.5436 39.4228 15.2716 39.4229 14.9258C39.4229 14.5798 39.2833 14.3178 39.0039 14.1387C38.7255 13.9597 38.3212 13.8711 37.793 13.8711H35.7656V15.999ZM45.4824 15.9453H46.9023C47.478 15.9453 47.9146 15.8269 48.2109 15.5918C48.5071 15.3567 48.6562 15.0069 48.6562 14.5596C48.6562 14.1125 48.5184 13.7659 48.2422 13.5186C47.9656 13.2721 47.5692 13.1475 47.0518 13.1475H45.4824V15.9453ZM27.3506 10.418C26.8512 10.418 26.406 10.5282 26.0156 10.749C25.6253 10.9699 25.3197 11.2859 25.0996 11.6973C24.8795 12.1086 24.7695 12.5951 24.7695 13.1553C24.7696 13.7154 24.8816 14.1999 25.1045 14.6084C25.3274 15.0167 25.6331 15.332 26.0205 15.5557C26.408 15.7793 26.8578 15.8916 27.3516 15.8916C27.8455 15.8916 28.2883 15.7794 28.6787 15.5557C29.0689 15.332 29.3767 15.0168 29.5996 14.6084H29.5986C29.8216 14.1999 29.9336 13.7163 29.9336 13.1553C29.9336 12.5942 29.8215 12.1086 29.5986 11.6973C29.3757 11.2859 29.0692 10.9699 28.6816 10.749C28.2941 10.5283 27.8499 10.418 27.3506 10.418ZM35.7666 12.3154H37.582C38.0758 12.3154 38.4576 12.2364 38.7275 12.0781C38.9975 11.9208 39.1328 11.6739 39.1328 11.3223C39.1327 10.9708 38.9954 10.7148 38.7227 10.5537C38.4499 10.3927 38.069 10.3125 37.582 10.3125H35.7666V12.3154ZM59.4316 4C59.4147 4.51187 59.5426 4.92547 59.8154 5.23828C60.0892 5.55094 60.4636 5.70702 60.9395 5.70703C61.4154 5.70703 61.7907 5.55092 62.0635 5.23828C62.3372 4.92547 62.4589 4.51282 62.4297 4H64.2979C64.3157 4.62649 64.1824 5.18484 63.8975 5.67676C63.6124 6.16873 63.213 6.55438 62.7021 6.83496C62.1904 7.11454 61.6214 7.25488 60.9395 7.25488C60.2575 7.25487 59.6612 7.11561 59.1504 6.83887H59.1494C58.6386 6.56211 58.2433 6.17947 57.9639 5.69043C57.6845 5.20131 57.5534 4.63795 57.5713 4H59.4316Z" fill="#EFEEEA"/>
</svg>
