<svg width="40" height="40" viewBox="0 0 40 40" fill="none" xmlns="http://www.w3.org/2000/svg">
<rect width="40" height="40" rx="20" fill="#191919"/>
<path d="M20.7246 12.46C21.004 12.1907 21.4384 12.1815 21.7285 12.4268L21.7852 12.4795L28.54 19.4795L28.6318 19.5957C28.8156 19.8823 28.785 20.2663 28.54 20.5205L21.7852 27.5205C21.4976 27.8184 21.0227 27.8273 20.7246 27.54C20.4267 27.2525 20.4178 26.7776 20.7051 26.4795L26.2344 20.75H12C11.5858 20.75 11.25 20.4142 11.25 20C11.25 19.5858 11.5858 19.25 12 19.25H26.2344L20.7051 13.5205L20.6553 13.4629C20.4202 13.1641 20.4452 12.7297 20.7246 12.46Z" fill="#EFEEEA"/>
</svg>
