<svg width="32" height="32" viewBox="0 0 32 32" fill="none" xmlns="http://www.w3.org/2000/svg">
<rect width="32" height="32" rx="16" fill="#EFEEEA"/>
<path d="M22.9395 15.4794C23.2198 15.77 23.2199 16.2309 22.9395 16.5214L17.5352 22.121C17.2475 22.4187 16.7725 22.4271 16.4746 22.1396C16.1771 21.8521 16.1691 21.378 16.4561 21.08L20.6348 16.7499H9.59961C9.18568 16.7497 8.84978 16.4139 8.84961 15.9999C8.84982 15.586 9.18571 15.2502 9.59961 15.2499H20.6338L16.4561 10.9208L16.9961 10.4003L17.5352 9.87983L22.9395 15.4794ZM16.4746 9.8603C16.7727 9.57271 17.2475 9.58181 17.5352 9.87983L16.4561 10.9208C16.1687 10.6229 16.1769 10.1479 16.4746 9.8603Z" fill="#191919"/>
</svg>
