<svg width="32" height="32" viewBox="0 0 32 32" fill="none" xmlns="http://www.w3.org/2000/svg">
<rect width="32" height="32" rx="16" fill="#191919" fill-opacity="0.15"/>
<path d="M19.4694 11.4694C19.7623 11.1765 20.2371 11.1766 20.53 11.4694C20.8229 11.7623 20.8229 12.237 20.53 12.5299L17.0602 15.9996L20.53 19.4694L20.5817 19.526C20.822 19.8206 20.8046 20.2553 20.53 20.5299C20.2554 20.8045 19.8206 20.822 19.5261 20.5817L19.4694 20.5299L15.9997 17.0602L12.53 20.5299C12.2371 20.8228 11.7623 20.8228 11.4694 20.5299C11.1767 20.237 11.1766 19.7622 11.4694 19.4694L14.9391 15.9996L11.4694 12.5299C11.1767 12.237 11.1766 11.7622 11.4694 11.4694C11.7623 11.1765 12.2371 11.1766 12.53 11.4694L15.9997 14.9391L19.4694 11.4694Z" fill="#191919"/>
</svg>
