<svg width="40" height="40" viewBox="0 0 40 40" fill="none" xmlns="http://www.w3.org/2000/svg">
<rect width="40" height="40" rx="20" fill="#EFEEEA"/>
<path d="M18 12.25C18.4142 12.25 18.75 12.5858 18.75 13C18.75 13.4142 18.4142 13.75 18 13.75H13C12.3092 13.75 11.75 14.3092 11.75 15V27C11.75 27.6908 12.3092 28.25 13 28.25H25C25.6908 28.25 26.25 27.6908 26.25 27V22C26.25 21.5858 26.5858 21.25 27 21.25C27.4142 21.25 27.75 21.5858 27.75 22V27C27.75 28.5192 26.5192 29.75 25 29.75H13C11.4808 29.75 10.25 28.5192 10.25 27V15C10.25 13.4808 11.4808 12.25 13 12.25H18ZM29 10.25C29.4142 10.25 29.75 10.5858 29.75 11V16C29.75 16.4142 29.4142 16.75 29 16.75C28.5858 16.75 28.25 16.4142 28.25 16V12.8105L22.5303 18.5303C22.2374 18.8232 21.7626 18.8232 21.4697 18.5303C21.1768 18.2374 21.1768 17.7626 21.4697 17.4697L27.1895 11.75H24C23.5858 11.75 23.25 11.4142 23.25 11C23.25 10.5858 23.5858 10.25 24 10.25H29Z" fill="#191919"/>
</svg>
