<svg width="52" height="52" viewBox="0 0 52 52" fill="none" xmlns="http://www.w3.org/2000/svg">
<rect width="52" height="52" rx="26" fill="#191919"/>
<path d="M23.3992 16.1492C23.8131 16.1492 24.1487 16.4853 24.1492 16.8992C24.1492 17.3134 23.8134 17.6492 23.3992 17.6492H16.8992C15.8774 17.6496 15.0498 18.4779 15.0496 19.4998V35.0994C15.0496 36.1214 15.8773 36.9495 16.8992 36.95H32.4998C33.522 36.9498 34.3494 36.1216 34.3494 35.0994V28.5994C34.3497 28.1857 34.6857 27.8497 35.0994 27.8494C35.5134 27.8494 35.849 28.1854 35.8494 28.5994V35.0994C35.8494 36.95 34.3504 38.4498 32.4998 38.45H16.8992C15.0488 38.4495 13.5496 36.9498 13.5496 35.0994V19.4998C13.5498 17.6495 15.049 16.1496 16.8992 16.1492H23.3992ZM37.7 13.5496C38.1138 13.5498 38.4497 13.8857 38.45 14.2996V20.7996C38.45 21.2136 38.114 21.5494 37.7 21.5496C37.2859 21.5493 36.95 21.2136 36.95 20.7996V16.1091L29.1296 23.9294C28.8367 24.2223 28.362 24.2223 28.0691 23.9294C27.7769 23.6365 27.7764 23.1615 28.0691 22.8689L35.8894 15.0496H31.2C30.7859 15.0493 30.45 14.7136 30.45 14.2996C30.4502 13.8857 30.7861 13.5498 31.2 13.5496H37.7Z" fill="#EFEEEA"/>
</svg>
