<svg width="16" height="16" viewBox="0 0 16 16" fill="none" xmlns="http://www.w3.org/2000/svg">
<path fill-rule="evenodd" clip-rule="evenodd" d="M14.2415 10.0098C14.2415 10.0098 15.5351 11.4065 15.8551 12.0528C15.8617 12.0619 15.8666 12.0723 15.8695 12.0834C15.9996 12.3219 16.0324 12.5099 15.9679 12.6475C15.8599 12.8758 15.4943 12.9904 15.3703 13H13.0839C12.9247 13 12.5935 12.9545 12.1903 12.6502C11.8824 12.4149 11.576 12.0275 11.2792 11.6488C10.836 11.0864 10.4528 10.5984 10.0648 10.5984C10.0158 10.5991 9.96727 10.6079 9.92077 10.6246C9.62717 10.7261 9.25438 11.1835 9.25438 12.4018C9.25438 12.7831 8.97918 13 8.78638 13H7.73919C7.3824 13 5.52482 12.8636 3.87763 10.9648C1.85925 8.6402 0.0464716 3.97691 0.0288717 3.93581C-0.0839271 3.63407 0.15287 3.46965 0.408868 3.46965H2.71764C3.02724 3.46965 3.12804 3.6743 3.19844 3.85797C3.28004 4.06874 3.58244 4.91184 4.07843 5.85902C4.88162 7.40003 5.37522 8.02711 5.76961 8.02711C5.8437 8.02723 5.91651 8.00612 5.98081 7.96589C6.49601 7.65629 6.40001 5.64474 6.37601 5.23019C6.37601 5.14973 6.37521 4.33199 6.11121 3.93668C5.92241 3.65331 5.60082 3.54312 5.40642 3.50289C5.45842 3.42068 5.56882 3.29473 5.71041 3.2204C6.06321 3.02799 6.7008 3 7.3336 3H7.68479C8.37119 3.0105 8.54879 3.0586 8.79838 3.12769C9.30078 3.25888 9.31038 3.61483 9.26638 4.82701C9.25358 5.17334 9.23998 5.56341 9.23998 6.02256C9.23998 6.12052 9.23598 6.22984 9.23598 6.34091C9.22078 6.96274 9.20078 7.66329 9.60238 7.95102C9.65428 7.98694 9.71455 8.00576 9.77597 8.00525C9.91517 8.00525 10.332 8.00525 11.4624 5.88438C11.9584 4.9477 12.3423 3.8431 12.3687 3.76001C12.3911 3.71366 12.4583 3.58335 12.5399 3.53087C12.5982 3.49785 12.6631 3.48103 12.7287 3.4819H15.4447C15.7407 3.4819 15.9415 3.53087 15.9807 3.65331C16.0463 3.85185 15.9679 4.45793 14.7279 6.29106C14.5191 6.59629 14.3359 6.86042 14.1751 7.09131C13.0511 8.70404 13.0511 8.78538 14.2415 10.0098Z" fill="#191919" fill-opacity="0.4"/>
</svg>
