<svg width="25" height="24" viewBox="0 0 25 24" fill="none" xmlns="http://www.w3.org/2000/svg">
<path d="M16.5 2.25C18.0192 2.25 19.25 3.48079 19.25 5V8C19.25 8.41421 18.9142 8.75 18.5 8.75C18.0858 8.75 17.75 8.41421 17.75 8V5C17.75 4.30921 17.1908 3.75 16.5 3.75H5.5C4.80921 3.75 4.25 4.30921 4.25 5V19C4.25 19.6908 4.80921 20.25 5.5 20.25H8.5C8.91421 20.25 9.25 20.5858 9.25 21C9.25 21.4142 8.91421 21.75 8.5 21.75H5.5C3.98079 21.75 2.75 20.5192 2.75 19V5C2.75 3.48079 3.98079 2.25 5.5 2.25H16.5ZM18.4492 11.25C19.4069 11.2501 20.2468 11.8863 20.5059 12.8086C20.7445 13.6574 20.4355 14.5583 19.7451 15.085L19.6016 15.1855L19.25 15.4102V16.459L21.0527 17.0605L21.1846 17.1104C21.8275 17.3832 22.2499 18.0161 22.25 18.7207V19.5859C22.25 20.0498 22.066 20.4946 21.7373 20.8232L21.3242 21.2354C20.9951 21.5662 20.5486 21.75 20.0859 21.75H13.9141C13.4502 21.75 13.0054 21.566 12.6768 21.2373L12.2637 20.8242C11.9331 20.4952 11.75 20.0484 11.75 19.5859V18.7207C11.7501 17.9675 12.2313 17.2987 12.9473 17.0605L14.75 16.459V15.4102L14.3984 15.1855C13.6085 14.679 13.2396 13.7141 13.4941 12.8086C13.7533 11.886 14.5944 11.2501 15.5508 11.25H18.4492ZM15.5508 12.75C15.3014 12.7501 15.0781 12.895 14.9746 13.1152L14.9385 13.2148C14.8631 13.483 14.9716 13.7703 15.207 13.9219L15.9043 14.3682C16.1197 14.506 16.25 14.7442 16.25 15V17C16.25 17.3228 16.0436 17.6098 15.7373 17.7119L13.4209 18.4834C13.3191 18.5172 13.2501 18.6122 13.25 18.7207V19.5859C13.25 19.6365 13.2653 19.6847 13.292 19.7246L13.3223 19.7617L13.7373 20.1768C13.7846 20.224 13.8479 20.25 13.9141 20.25H20.0859C20.1532 20.25 20.2168 20.2229 20.2617 20.1777L20.6768 19.7627C20.724 19.7154 20.75 19.6521 20.75 19.5859V18.7207C20.7499 18.6396 20.7108 18.5656 20.6484 18.5195L20.5791 18.4834L18.2627 17.7119C17.9564 17.6098 17.75 17.3228 17.75 17V15C17.75 14.7442 17.8803 14.506 18.0957 14.3682L18.793 13.9219C18.9989 13.7893 19.1083 13.553 19.082 13.3164L19.0615 13.2148C18.9844 12.9397 18.735 12.7501 18.4492 12.75H15.5508ZM8 13.25C9.24221 13.25 10.25 14.2578 10.25 15.5C10.25 16.7422 9.24221 17.75 8 17.75C6.75779 17.75 5.75 16.7422 5.75 15.5C5.75 14.2578 6.75779 13.25 8 13.25ZM8 14.75C7.58621 14.75 7.25 15.0862 7.25 15.5C7.25 15.9138 7.58621 16.25 8 16.25C8.41379 16.25 8.75 15.9138 8.75 15.5C8.75 15.0862 8.41379 14.75 8 14.75ZM10.5 9.75C10.9142 9.75 11.25 10.0858 11.25 10.5C11.25 10.9142 10.9142 11.25 10.5 11.25H6.5C6.08579 11.25 5.75 10.9142 5.75 10.5C5.75 10.0858 6.08579 9.75 6.5 9.75H10.5ZM14.5 6.25C14.9142 6.25 15.25 6.58579 15.25 7C15.25 7.41421 14.9142 7.75 14.5 7.75H6.5C6.08579 7.75 5.75 7.41421 5.75 7C5.75 6.58579 6.08579 6.25 6.5 6.25H14.5Z" fill="#191919"/>
</svg>
