<svg width="16" height="16" viewBox="0 0 16 16" fill="none" xmlns="http://www.w3.org/2000/svg">
<path fill-rule="evenodd" clip-rule="evenodd" d="M13.4463 2.08894C13.6307 2.01019 13.8325 1.98303 14.0308 2.01028C14.2291 2.03754 14.4166 2.11821 14.5737 2.24391C14.7308 2.36961 14.8519 2.53573 14.9242 2.72499C14.9966 2.91425 15.0176 3.11973 14.9852 3.32004L13.2925 13.736C13.1283 14.7407 12.0417 15.3169 11.1334 14.8164C10.3737 14.3977 9.24525 13.7526 8.23027 13.0795C7.72277 12.7426 6.1682 11.6637 6.35926 10.8959C6.52345 10.2395 9.13555 7.77275 10.6282 6.30618C11.214 5.73 10.9469 5.39762 10.255 5.92761C8.537 7.24352 5.77863 9.24463 4.86663 9.80794C4.0621 10.3046 3.64267 10.3894 3.14115 10.3046C2.22617 10.1502 1.37761 9.91091 0.685033 9.61941C-0.250845 9.2257 -0.20532 7.9204 0.684286 7.54031L13.4463 2.08894Z" fill="#191919" fill-opacity="0.4"/>
</svg>
