<svg width="54" height="54" viewBox="0 0 54 54" fill="none" xmlns="http://www.w3.org/2000/svg">
<rect width="54" height="54" rx="27" fill="#0B4A4C"/>
<path d="M27 37.333C27.4141 37.333 27.7498 37.6689 27.75 38.083V41.25C27.75 41.6642 27.4142 42 27 42C26.5858 42 26.25 41.6642 26.25 41.25V38.083C26.2502 37.6689 26.5859 37.333 27 37.333ZM22.25 13.583C22.6641 13.583 22.9998 13.9189 23 14.333C23 14.7472 22.6642 15.083 22.25 15.083H20.625V19.917H22.25L22.3271 19.9209C22.7051 19.9595 23 20.2788 23 20.667C22.9998 21.055 22.705 21.3745 22.3271 21.4131L22.25 21.417H13.5V32.583H22.25C22.6641 32.583 22.9998 32.9189 23 33.333C23 33.7472 22.6642 34.083 22.25 34.083H20.625V38.917H22.25L22.3271 38.9209C22.7051 38.9595 23 39.2788 23 39.667C22.9998 40.055 22.705 40.3745 22.3271 40.4131L22.25 40.417H15.917C13.7532 40.417 12 38.6638 12 36.5V17.5C12 15.3362 13.7532 13.583 15.917 13.583H22.25ZM38.083 13.583C40.2468 13.583 42 15.3362 42 17.5V36.5C42 38.6638 40.2468 40.417 38.083 40.417H31.75C31.3359 40.417 31.0002 40.0811 31 39.667C31 39.2528 31.3358 38.917 31.75 38.917H33.375V34.083H31.75C31.3358 34.083 31 33.7472 31 33.333C31.0002 32.9189 31.3359 32.583 31.75 32.583H40.5V21.417H31.75C31.3359 21.417 31.0002 21.0811 31 20.667C31 20.2528 31.3358 19.917 31.75 19.917H33.375V15.083H31.75C31.3358 15.083 31 14.7472 31 14.333C31.0002 13.9189 31.3359 13.583 31.75 13.583H38.083ZM13.5 36.5C13.5 37.8354 14.5816 38.917 15.917 38.917H19.125V34.083H13.5V36.5ZM34.875 38.917H38.083C39.4184 38.917 40.5 37.8354 40.5 36.5V34.083H34.875V38.917ZM27 29.417C27.4142 29.417 27.75 29.7528 27.75 30.167V33.333C27.75 33.7472 27.4142 34.083 27 34.083C26.5858 34.083 26.25 33.7472 26.25 33.333V30.167C26.25 29.7528 26.5858 29.417 27 29.417ZM27 20.5498C27.4141 20.5498 27.7499 20.8857 27.75 21.2998V24.4668C27.7499 24.881 27.4142 25.2168 27 25.2168C26.5858 25.2168 26.2501 24.881 26.25 24.4668V21.2998C26.2501 20.8857 26.5859 20.5498 27 20.5498ZM15.917 15.083C14.5816 15.083 13.5 16.1646 13.5 17.5V19.917H19.125V15.083H15.917ZM34.875 19.917H40.5V17.5C40.5 16.1646 39.4184 15.083 38.083 15.083H34.875V19.917ZM27 12C27.4142 12 27.75 12.3358 27.75 12.75V15.917C27.7498 16.3311 27.4141 16.667 27 16.667C26.5859 16.667 26.2502 16.3311 26.25 15.917V12.75C26.25 12.3358 26.5858 12 27 12Z" fill="#EFEEEA"/>
</svg>
