<svg width="54" height="54" viewBox="0 0 54 54" fill="none" xmlns="http://www.w3.org/2000/svg">
<rect width="54" height="54" rx="27" fill="#191919"/>
<path d="M38.083 12C40.2468 12 42 13.7532 42 15.917V38.083C42 40.2468 40.2468 42 38.083 42H15.917C13.7532 42 12 40.2468 12 38.083V15.917C12 13.7532 13.7532 12 15.917 12H38.083ZM15.917 13.5C14.5816 13.5 13.5 14.5816 13.5 15.917V38.083C13.5 39.4184 14.5816 40.5 15.917 40.5H38.083C39.4184 40.5 40.5 39.4184 40.5 38.083V15.917C40.5 14.5816 39.4184 13.5 38.083 13.5H15.917ZM22.25 18.333C22.6641 18.333 22.9998 18.6689 23 19.083V21.5H23.833C25.1211 21.5 26.1668 22.5449 26.167 23.833V25.417C26.1668 26.7051 25.1211 27.75 23.833 27.75H23V34.917C22.9998 35.3311 22.6641 35.667 22.25 35.667C21.8359 35.667 21.5002 35.3311 21.5 34.917V27.75H20.667C19.3789 27.75 18.3332 26.7051 18.333 25.417V23.833C18.3332 22.5449 19.3789 21.5 20.667 21.5H21.5V19.083C21.5002 18.6689 21.8359 18.333 22.25 18.333ZM31.75 18.333C32.1641 18.333 32.4998 18.6689 32.5 19.083V26.25H33.333C34.6211 26.25 35.6668 27.2949 35.667 28.583V30.167C35.6668 31.4551 34.6211 32.5 33.333 32.5H32.5V34.917C32.4998 35.3311 32.1641 35.667 31.75 35.667C31.3359 35.667 31.0002 35.3311 31 34.917V32.5H30.167C28.8789 32.5 27.8332 31.4551 27.833 30.167V28.583C27.8332 27.2949 28.8789 26.25 30.167 26.25H31V19.083C31.0002 18.6689 31.3359 18.333 31.75 18.333ZM30.167 27.75C29.7073 27.75 29.3332 28.1234 29.333 28.583V30.167C29.3332 30.6266 29.7073 31 30.167 31H33.333C33.7927 31 34.1668 30.6266 34.167 30.167V28.583C34.1668 28.1234 33.7927 27.75 33.333 27.75H30.167ZM20.667 23C20.2073 23 19.8332 23.3734 19.833 23.833V25.417C19.8332 25.8766 20.2073 26.25 20.667 26.25H23.833C24.2927 26.25 24.6668 25.8766 24.667 25.417V23.833C24.6668 23.3734 24.2927 23 23.833 23H20.667Z" fill="#EFEEEA"/>
</svg>
