<svg width="54" height="54" viewBox="0 0 54 54" fill="none" xmlns="http://www.w3.org/2000/svg">
<rect width="54" height="54" rx="27" fill="#191919"/>
<path d="M37.3642 12.0668C38.5205 11.866 39.7063 12.1886 40.6015 12.9477C41.4951 13.7057 42.0075 14.821 41.9999 15.9926V22.2543C41.9997 26.0144 39.9408 29.4619 36.6552 31.2504L36.3339 31.4184C35.1132 32.0287 33.8007 32.3791 32.4745 32.4731C32.221 36.0686 30.0896 39.2905 26.8339 40.9184C23.9483 42.361 20.5515 42.3611 17.6659 40.9184C14.1935 39.1822 12.0001 35.6326 11.9999 31.7504V25.4994C11.992 24.3275 12.5033 23.2118 13.3964 22.4526C14.2912 21.692 15.4773 21.3671 16.6347 21.5658L16.6435 21.5678L17.3378 21.6879C18.7148 21.9092 20.1056 22.0338 21.4999 22.0639V15.9926C21.4923 14.821 22.0047 13.7057 22.8983 12.9477C23.7935 12.1886 24.9793 11.8661 26.1356 12.0668L26.1415 12.0678C29.85 12.7411 33.6498 12.7411 37.3583 12.0678L37.3642 12.0668ZM16.372 23.0424C15.6555 22.922 14.9219 23.1245 14.3681 23.5951C13.812 24.0679 13.4938 24.7637 13.4999 25.4936V31.7504C13.5001 35.0645 15.3726 38.0945 18.3368 39.5766C20.8001 40.8082 23.6997 40.8081 26.163 39.5766C28.9114 38.2024 30.7195 35.4973 30.9687 32.4692C29.6618 32.3693 28.3692 32.02 27.1659 31.4184C24.0895 29.8816 22.0184 26.9204 21.5858 23.5658C19.8369 23.5346 18.0929 23.3611 16.372 23.0434V23.0424ZM22.2118 34.1674C23.2348 34.1781 24.2298 34.5032 25.0614 35.099C25.398 35.3403 25.4755 35.8093 25.2343 36.1459C24.993 36.4819 24.5248 36.5594 24.1884 36.3188C23.6089 35.9036 22.9157 35.6762 22.203 35.6674C21.523 35.675 20.8605 35.8841 20.2997 36.269C19.9584 36.5032 19.4912 36.4167 19.2567 36.0756C19.0224 35.7342 19.1089 35.2672 19.4501 35.0326C20.2591 34.4772 21.2159 34.1762 22.1972 34.1674H22.2118ZM25.745 13.5248C25.07 13.4456 24.3895 13.65 23.8681 14.0922C23.3123 14.5638 22.9941 15.2579 22.9999 15.9867V22.2543C23.0001 25.5672 24.873 28.5962 27.8368 30.0766L28.0692 30.1889C30.481 31.3073 33.2768 31.2696 35.663 30.0766C38.6268 28.5962 40.4997 25.5672 40.4999 22.2543V15.9867C40.5057 15.2578 40.1876 14.5638 39.6317 14.0922C39.0758 13.6207 38.3392 13.4197 37.621 13.5444L37.62 13.5434C33.7382 14.2474 29.7616 14.2483 25.8798 13.5444L25.745 13.5248ZM19.9521 28.1889C20.33 28.2275 20.6249 28.5468 20.6249 28.935C20.6247 29.323 20.3299 29.6425 19.9521 29.6811L19.8749 29.685H18.2919C17.8778 29.685 17.5421 29.349 17.5419 28.935C17.5419 28.5208 17.8777 28.185 18.2919 28.185H19.8749L19.9521 28.1889ZM28.7655 24.9799C29.0068 24.6436 29.4749 24.5662 29.8114 24.807C30.3906 25.222 31.0835 25.4485 31.7958 25.4574C32.4761 25.45 33.1391 25.2418 33.7001 24.8569C34.0416 24.6224 34.5086 24.7088 34.7431 25.0502C34.9773 25.3916 34.891 25.8588 34.5497 26.0932C33.7407 26.6486 32.7839 26.9496 31.8026 26.9584C31.7979 26.9585 31.7927 26.9585 31.788 26.9584C30.7651 26.9478 29.7699 26.6225 28.9384 26.0268C28.6018 25.7856 28.5245 25.3166 28.7655 24.9799ZM29.3749 18.3334C29.789 18.3334 30.1248 18.6693 30.1249 19.0834C30.1247 19.4975 29.789 19.8334 29.3749 19.8334H27.7919C27.3778 19.8334 27.0421 19.4975 27.0419 19.0834C27.042 18.6693 27.3778 18.3334 27.7919 18.3334H29.3749ZM35.7079 18.3334C36.122 18.3334 36.4578 18.6693 36.4579 19.0834C36.4577 19.4975 36.122 19.8334 35.7079 19.8334H34.1249C33.7108 19.8334 33.3751 19.4975 33.3749 19.0834C33.375 18.6693 33.7108 18.3334 34.1249 18.3334H35.7079Z" fill="#EFEEEA"/>
</svg>
