<svg width="54" height="54" viewBox="0 0 54 54" fill="none" xmlns="http://www.w3.org/2000/svg">
<rect width="54" height="54" rx="27" fill="#191919"/>
<path d="M33.3369 13.5781C35.5005 13.5785 37.2549 15.3325 37.2549 17.4961V32.5859H39.6719C40.9607 32.5861 42.0058 33.6311 42.0059 34.9199V36.5039C42.0058 38.6676 40.2516 40.4217 38.0879 40.4219H19.8721C18.1457 40.4219 16.7461 39.0223 16.7461 37.2959V22.998H14.3281C13.0391 22.998 11.9942 21.9531 11.9941 20.6641V16.7041C11.9941 15.0314 13.3084 13.6657 14.96 13.582L15.1211 13.5781H33.3369ZM17.7871 15.0781C18.0766 15.5522 18.2461 16.108 18.2461 16.7041V37.2959C18.2461 38.1939 18.9741 38.9219 19.8721 38.9219C20.7699 38.9217 21.498 38.1938 21.498 37.2959V34.9199C21.4981 33.631 22.5431 32.586 23.832 32.5859H35.7549V17.4961C35.7549 16.1609 34.672 15.0785 33.3369 15.0781H17.7871ZM23.832 34.0859C23.3715 34.086 22.9981 34.4594 22.998 34.9199V37.2959C22.998 37.8922 22.8278 38.4478 22.5381 38.9219H38.0879C39.4231 38.9217 40.5058 37.8392 40.5059 36.5039V34.9199C40.5058 34.4595 40.1323 34.0861 39.6719 34.0859H23.832ZM31.752 26.25C32.166 26.2502 32.5019 26.5859 32.502 27C32.5019 27.4141 32.166 27.7498 31.752 27.75H22.248C21.8339 27.75 21.4981 27.4142 21.498 27C21.4981 26.5858 21.8339 26.25 22.248 26.25H31.752ZM15.1211 15.0781C14.2229 15.0781 13.4941 15.8063 13.4941 16.7041V20.6641C13.4942 21.1246 13.8676 21.498 14.3281 21.498H16.7461V16.7041C16.7461 15.8061 16.0185 15.0785 15.1211 15.0781ZM31.752 19.9424C32.166 19.9426 32.502 20.2783 32.502 20.6924C32.5018 21.1063 32.1659 21.4422 31.752 21.4424H22.248C21.8339 21.4424 21.4982 21.1064 21.498 20.6924C21.498 20.2782 21.8338 19.9424 22.248 19.9424H31.752Z" fill="#EFEEEA"/>
</svg>
