<svg width="54" height="54" viewBox="0 0 54 54" fill="none" xmlns="http://www.w3.org/2000/svg">
<rect width="54" height="54" rx="27" fill="#0B4A4C"/>
<path d="M37.3641 12.0668C38.5205 11.866 39.7062 12.1886 40.6014 12.9477C41.4951 13.7057 42.0074 14.821 41.9998 15.9926V22.2543C41.9996 26.0144 39.9407 29.4619 36.6551 31.2504L36.3338 31.4184C35.1131 32.0287 33.8007 32.3791 32.4745 32.4731C32.2209 36.0686 30.0895 39.2905 26.8338 40.9184C23.9483 42.361 20.5514 42.3611 17.6659 40.9184C14.1935 39.1822 12 35.6326 11.9998 31.7504V25.4994C11.9919 24.3275 12.5033 23.2118 13.3963 22.4526C14.2911 21.692 15.4772 21.3671 16.6346 21.5658L16.6434 21.5678L17.3377 21.6879C18.7148 21.9092 20.1055 22.0338 21.4998 22.0639V15.9926C21.4923 14.821 22.0046 13.7057 22.8983 12.9477C23.7934 12.1886 24.9792 11.8661 26.1356 12.0668L26.1414 12.0678C29.85 12.7411 33.6497 12.7411 37.3582 12.0678L37.3641 12.0668ZM16.3719 23.0424C15.6554 22.922 14.9219 23.1245 14.368 23.5951C13.812 24.0679 13.4938 24.7637 13.4998 25.4936V31.7504C13.5 35.0645 15.3726 38.0945 18.3368 39.5766C20.8 40.8082 23.6997 40.8081 26.1629 39.5766C28.9113 38.2024 30.7195 35.4973 30.9686 32.4692C29.6617 32.3693 28.3692 32.02 27.1659 31.4184C24.0894 29.8816 22.0184 26.9204 21.5858 23.5658C19.8368 23.5346 18.0928 23.3611 16.3719 23.0434V23.0424ZM22.2118 34.1674C23.2347 34.1781 24.2298 34.5032 25.0614 35.099C25.3979 35.3403 25.4754 35.8093 25.2342 36.1459C24.993 36.4819 24.5248 36.5594 24.1883 36.3188C23.6089 35.9036 22.9157 35.6762 22.203 35.6674C21.523 35.675 20.8604 35.8841 20.2997 36.269C19.9583 36.5032 19.4912 36.4167 19.2567 36.0756C19.0223 35.7342 19.1089 35.2672 19.45 35.0326C20.2591 34.4772 21.2158 34.1762 22.1971 34.1674H22.2118ZM25.745 13.5248C25.0699 13.4456 24.3894 13.65 23.868 14.0922C23.3123 14.5638 22.994 15.2579 22.9998 15.9867V22.2543C23.0001 25.5672 24.873 28.5962 27.8368 30.0766L28.0692 30.1889C30.481 31.3073 33.2767 31.2696 35.6629 30.0766C38.6267 28.5962 40.4996 25.5672 40.4998 22.2543V15.9867C40.5056 15.2578 40.1875 14.5638 39.6317 14.0922C39.0757 13.6207 38.3392 13.4197 37.6209 13.5444L37.62 13.5434C33.7382 14.2474 29.7615 14.2483 25.8797 13.5444L25.745 13.5248ZM19.952 28.1889C20.33 28.2275 20.6248 28.5468 20.6248 28.935C20.6247 29.323 20.3298 29.6425 19.952 29.6811L19.8748 29.685H18.2918C17.8778 29.685 17.542 29.349 17.5418 28.935C17.5418 28.5208 17.8776 28.185 18.2918 28.185H19.8748L19.952 28.1889ZM28.7655 24.9799C29.0067 24.6436 29.4748 24.5662 29.8114 24.807C30.3905 25.222 31.0835 25.4485 31.7957 25.4574C32.476 25.45 33.139 25.2418 33.7 24.8569C34.0415 24.6224 34.5086 24.7088 34.743 25.0502C34.9772 25.3916 34.8909 25.8588 34.5497 26.0932C33.7406 26.6486 32.7838 26.9496 31.8026 26.9584C31.7979 26.9585 31.7926 26.9585 31.7879 26.9584C30.7651 26.9478 29.7699 26.6225 28.9383 26.0268C28.6017 25.7856 28.5244 25.3166 28.7655 24.9799ZM29.3748 18.3334C29.789 18.3334 30.1247 18.6693 30.1248 19.0834C30.1247 19.4975 29.7889 19.8334 29.3748 19.8334H27.7918C27.3778 19.8334 27.042 19.4975 27.0418 19.0834C27.042 18.6693 27.3777 18.3334 27.7918 18.3334H29.3748ZM35.7079 18.3334C36.122 18.3334 36.4577 18.6693 36.4579 19.0834C36.4577 19.4975 36.1219 19.8334 35.7079 19.8334H34.1248C33.7108 19.8334 33.375 19.4975 33.3748 19.0834C33.375 18.6693 33.7107 18.3334 34.1248 18.3334H35.7079Z" fill="#EFEEEA"/>
</svg>
