<svg width="54" height="54" viewBox="0 0 54 54" fill="none" xmlns="http://www.w3.org/2000/svg">
<rect width="54" height="54" rx="27" fill="#0B4A4C"/>
<path d="M37.2734 13.1997C38.9562 12.0794 41.2079 13.2851 41.208 15.3071V33.5864C41.2079 35.6096 38.9552 36.8125 37.2734 35.6929H37.2725L29.542 30.5395H27.0938L28.0469 36.2632C28.479 38.8622 26.4751 41.227 23.8408 41.227C21.8219 41.2268 20.0893 39.8138 19.6719 37.855L19.6348 37.6636L18.4473 30.5395H17.3018C13.9364 30.5394 11.2081 27.8112 11.208 24.4458C11.2083 21.0806 13.9365 18.3522 17.3018 18.352H29.5439L37.2725 13.1997H37.2734ZM21.1152 37.4175L21.167 37.6636C21.4813 38.8695 22.5742 39.7269 23.8408 39.727C25.4947 39.727 26.7659 38.2887 26.5889 36.6665L26.5674 36.5093L25.5723 30.5395H19.9688L21.1152 37.4175ZM39.708 15.3071C39.7079 14.534 38.9013 14.0542 38.2354 14.3735L38.1045 14.4478L30.5205 19.5034V29.3882L38.1045 34.4448L38.2354 34.519C38.902 34.8391 39.7079 34.3585 39.708 33.5864V15.3071ZM17.3018 19.852C14.7649 19.8522 12.7083 21.909 12.708 24.4458C12.7081 26.9827 14.7648 29.0394 17.3018 29.0395H29.0205V19.852H17.3018Z" fill="#EFEEEA"/>
</svg>
