<svg width="54" height="54" viewBox="0 0 54 54" fill="none" xmlns="http://www.w3.org/2000/svg">
<rect width="54" height="54" rx="27" fill="#0B4A4C"/>
<path d="M25.6885 13.583C26.7271 13.5831 27.7236 13.996 28.458 14.7305L29.7695 16.042C30.504 16.7764 30.9169 17.7729 30.917 18.8115V19.916H31.75C33.9129 19.9162 35.6668 21.6702 35.667 23.833V25.2021L40.3584 23.2617C41.0782 22.9641 41.8993 23.0457 42.5469 23.4785C43.1944 23.9114 43.5839 24.639 43.584 25.418V34.915C43.5839 35.6939 43.1943 36.4215 42.5469 36.8545C41.8992 37.2874 41.0783 37.3681 40.3584 37.0703L35.667 35.1299V39.666C35.667 40.0801 35.3311 40.4158 34.917 40.416H14.334C12.171 40.416 10.4172 38.663 10.417 36.5V23.833C10.4172 21.67 12.171 19.916 14.334 19.916H29.417V18.8115C29.4169 18.1707 29.1621 17.5557 28.709 17.1025L27.3975 15.791C26.9443 15.3379 26.3293 15.0831 25.6885 15.083H15.917C15.5028 15.083 15.167 14.7472 15.167 14.333C15.1672 13.9189 15.5029 13.583 15.917 13.583H25.6885ZM14.334 21.416C12.9994 21.416 11.9172 22.4985 11.917 23.833V36.5C11.9172 37.8345 12.9994 38.916 14.334 38.916H34.167V23.833C34.1668 22.4986 33.0844 21.4162 31.75 21.416H14.334ZM41.7139 24.7256C41.4827 24.5711 41.1886 24.5413 40.9316 24.6475L35.667 26.8252V33.5059L40.9316 35.6846C41.1887 35.7909 41.4826 35.762 41.7139 35.6074C41.9447 35.4528 42.0839 35.1929 42.084 34.915V25.418C42.0839 25.1401 41.9448 24.8802 41.7139 24.7256ZM28.6602 29.4199C29.0381 29.4583 29.3337 29.778 29.334 30.166C29.334 30.5543 29.0382 30.8736 28.6602 30.9121L28.584 30.916H17.5C17.0859 30.9158 16.75 30.5801 16.75 30.166C16.7504 29.7522 17.0862 29.4162 17.5 29.416H28.584L28.6602 29.4199Z" fill="#EFEEEA"/>
</svg>
